HIERARCHY
ROOT SpineBase
{
  OFFSET 0.000000 0.000000 0.000000
  CHANNELS 6 Xposition Yposition Zposition Zrotation Xrotation Yrotation
  JOINT SpineMid
  {
    OFFSET 0.000000 31.771236 0.000000
    CHANNELS 3 Zrotation Xrotation Yrotation
    JOINT SpineShoulder
    {
      OFFSET 0.119965 23.563512 -0.726578
      CHANNELS 3 Zrotation Xrotation Yrotation
      JOINT Neck
      {
        OFFSET 0.072377 7.798109 -0.565821
        CHANNELS 3 Zrotation Xrotation Yrotation
        JOINT Head
        {
          OFFSET 4.333819 13.046639 4.766392
          CHANNELS 3 Zrotation Xrotation Yrotation
          End Site
          {
            OFFSET 0 0 0
          }
        }
      }
      JOINT ShoulderLeft
      {
        OFFSET -12.643323 -2.878206 -9.916887
        CHANNELS 3 Zrotation Xrotation Yrotation
        JOINT ElbowLeft
        {
          OFFSET -6.577625 -25.858352 -6.327188
          CHANNELS 3 Zrotation Xrotation Yrotation
          JOINT WristLeft
          {
            OFFSET 0.128170 -19.747704 -5.774030
            CHANNELS 3 Zrotation Xrotation Yrotation
            JOINT HandLeft
            {
              OFFSET 0.521684 -7.815682 0.147982
              CHANNELS 3 Zrotation Xrotation Yrotation
              JOINT HandTipLeft
              {
                OFFSET 0.433076 -8.193005 -0.082423
                CHANNELS 3 Zrotation Xrotation Yrotation
                End Site
                {
                  OFFSET 0 0 0
                }
              }
              JOINT ThumbLeft
              {
                OFFSET 3.865591 1.271058 0.033390
                CHANNELS 3 Zrotation Xrotation Yrotation
                End Site
                {
                  OFFSET 0 0 0
                }
              }
            }
          }
        }
      }
      JOINT ShoulderRight
      {
        OFFSET 12.952861 -4.533195 11.045627
        CHANNELS 3 Zrotation Xrotation Yrotation
        JOINT ElbowRight
        {
          OFFSET 3.102490 -26.237855 6.181699
          CHANNELS 3 Zrotation Xrotation Yrotation
          JOINT WristRight
          {
            OFFSET 0.936787 -23.710218 -3.364883
            CHANNELS 3 Zrotation Xrotation Yrotation
            JOINT HandRight
            {
              OFFSET -1.031757 -7.941486 -0.400620
              CHANNELS 3 Zrotation Xrotation Yrotation
              JOINT HandTipRight
              {
                OFFSET -0.192689 -7.571843 -0.196158
                CHANNELS 3 Zrotation Xrotation Yrotation
                End Site
                {
                  OFFSET 0 0 0
                }
              }
              JOINT ThumbRight
              {
                OFFSET -3.275437 2.661900 -1.472856
                CHANNELS 3 Zrotation Xrotation Yrotation
                End Site
                {
                  OFFSET 0 0 0
                }
              }
            }
          }
        }
      }
    }
  }
  JOINT HipLeft
  {
    OFFSET -5.568816 1.830570 -7.696426
    CHANNELS 3 Zrotation Xrotation Yrotation
    JOINT KneeLeft
    {
      OFFSET -11.804768 -34.346241 -5.024698
      CHANNELS 3 Zrotation Xrotation Yrotation
      JOINT AnkleLeft
      {
        OFFSET -7.897045 -37.199480 4.284072
        CHANNELS 3 Zrotation Xrotation Yrotation
        JOINT FootLeft
        {
          OFFSET 0.751398 -7.941921 -6.088961
          CHANNELS 3 Zrotation Xrotation Yrotation
          End Site
          {
            OFFSET 0 0 0
          }
        }
      }
    }
  }
  JOINT HipRight
  {
    OFFSET 6.144732 0.234593 0.738400
    CHANNELS 3 Zrotation Xrotation Yrotation
    JOINT KneeRight
    {
      OFFSET -5.529805 -36.895322 2.979358
      CHANNELS 3 Zrotation Xrotation Yrotation
      JOINT AnkleRight
      {
        OFFSET -6.012944 -35.605781 10.424442
        CHANNELS 3 Zrotation Xrotation Yrotation
        JOINT FootRight
        {
          OFFSET 5.063881 -5.340092 -8.323362
          CHANNELS 3 Zrotation Xrotation Yrotation
          End Site
          {
            OFFSET 0 0 0
          }
        }
      }
    }
  }
}
MOTION
Frames: 6
Frame Time: 0.033333
-27.203683 85.822604 324.912551 -3.699030 8.076562 -38.014527 -0.329500 0.025203 38.102062 -0.070573 0.133893 -0.207029 4.903773 5.067681 -3.973135 0.000000 0.000000 0.000000 -102.976742 15.863290 30.009095 -159.696765 20.747826 -0.730657 10.815372 -11.221708 57.569847 -18.269304 16.163528 -6.825835 0.000000 0.000000 0.000000 0.000000 0.000000 0.000000 84.027131 -19.203190 38.216447 145.950959 -8.969254 104.966588 4.985983 1.015636 -31.549164 9.413906 -5.497228 10.377036 0.000000 0.000000 0.000000 0.000000 0.000000 0.000000 12.843996 -2.748166 38.876578 -4.666370 2.063415 0.056911 -2.351436 2.236723 2.033915 0.000000 0.000000 0.000000 9.855352 -0.693021 38.718302 -4.249582 -2.563542 -0.133951 8.675149 17.186304 1.129144 0.000000 0.000000 0.000000
-27.155570 86.255203 324.903014 -3.608972 8.450474 -37.538789 -0.090417 0.131156 37.656525 0.056918 0.259581 -0.172983 1.832795 4.518103 -3.139429 0.000000 0.000000 0.000000 -106.642670 14.352761 29.826102 -155.656545 18.837732 0.707348 4.898996 -12.120330 53.292343 -15.149817 13.817850 -6.413260 0.000000 0.000000 0.000000 0.000000 0.000000 0.000000 87.738959 -20.181448 41.519128 146.730952 -13.216053 98.763868 9.691360 3.479542 -21.543186 8.939076 -11.791646 2.957602 0.000000 0.000000 0.000000 0.000000 0.000000 0.000000 13.072192 -3.074011 38.441903 -4.815803 2.018620 0.094362 -2.572140 2.238919 2.205842 0.000000 0.000000 0.000000 9.891619 -1.201319 38.280122 -4.126337 -2.542843 -0.130572 8.229201 16.957461 1.627186 0.000000 0.000000 0.000000
-27.069221 86.665008 324.924029 -3.526398 8.954234 -36.562869 0.023134 0.318677 36.713915 0.117268 0.420092 -0.151747 -1.747874 2.946687 -1.970246 0.000000 0.000000 0.000000 -109.161755 13.472700 29.247366 -152.916908 17.043044 2.327351 5.152039 -11.595156 52.338284 -17.811260 17.579922 -7.053608 0.000000 0.000000 0.000000 0.000000 0.000000 0.000000 92.906577 -20.682672 45.872165 146.772497 -17.041895 93.935071 11.313544 4.509339 -17.428707 10.036496 -14.689567 0.484256 0.000000 0.000000 0.000000 0.000000 0.000000 0.000000 13.223316 -3.542351 37.493617 -4.909098 1.834557 0.163878 -2.649429 2.382008 2.280467 0.000000 0.000000 0.000000 9.963013 -1.974029 37.367270 -3.944922 -2.491052 -0.126883 5.252117 12.169791 2.398131 0.000000 0.000000 0.000000
-26.990000 87.055648 325.006123 -3.447771 9.437989 -35.227568 0.066808 0.526594 35.408398 0.137910 0.571281 -0.139259 -4.421901 1.581752 -1.218660 0.000000 0.000000 0.000000 -112.242223 13.831399 29.917284 -148.438311 16.924438 3.698408 -4.115593 -9.479660 45.727851 -18.797794 11.590394 -3.451912 0.000000 0.000000 0.000000 0.000000 0.000000 0.000000 99.019728 -20.278374 50.599908 145.670720 -21.562274 89.314587 12.555595 5.819357 -14.079186 7.749565 -11.872215 1.036304 0.000000 0.000000 0.000000 0.000000 0.000000 0.000000 13.223612 -3.978043 36.131659 -4.978640 1.500742 0.273612 -2.778333 2.614270 2.404413 0.000000 0.000000 0.000000 10.005888 -2.739334 36.095304 -3.818477 -2.513054 -0.119740 2.577830 7.957662 3.077846 0.000000 0.000000 0.000000
-26.881346 87.510880 325.104325 -3.321250 9.988677 -34.120996 0.040048 0.714288 34.323198 0.196872 0.678894 -0.122919 -6.303638 0.016749 -0.743885 0.000000 0.000000 0.000000 -115.222048 14.532433 30.810101 -143.455858 17.523899 4.265006 -7.740397 -6.109654 42.483799 -19.124401 10.961957 -3.583659 0.000000 0.000000 0.000000 0.000000 0.000000 0.000000 104.477859 -19.302011 54.843606 143.873394 -27.105867 84.256149 15.997736 9.374869 -7.268271 4.013998 -12.399847 -2.144513 0.000000 0.000000 0.000000 0.000000 0.000000 0.000000 13.239520 -4.508128 35.031270 -5.020050 1.227584 0.360758 -2.829131 2.983523 2.481387 0.000000 0.000000 0.000000 10.011526 -3.495818 35.043221 -3.690688 -2.611208 -0.099507 0.503409 4.890027 3.692082 0.000000 0.000000 0.000000
-26.702487 88.049643 325.179555 -3.094500 10.520156 -33.600381 -0.038882 0.784782 33.801382 0.262552 0.635308 -0.107117 -7.213662 -0.839681 -0.641599 0.000000 0.000000 0.000000 -117.782087 15.648386 32.234725 -138.183791 19.079759 3.595075 -11.224675 -5.993547 42.742354 -13.211437 14.235055 -7.712047 0.000000 0.000000 0.000000 0.000000 0.000000 0.000000 112.061184 -16.862719 59.763495 140.578876 -33.102959 78.963629 18.755975 16.257428 1.594556 0.253989 -13.923004 -5.741244 0.000000 0.000000 0.000000 0.000000 0.000000 0.000000 13.213087 -5.093887 34.556266 -4.990299 1.089148 0.397130 -3.061968 2.908050 2.655614 0.000000 0.000000 0.000000 9.866852 -4.135050 34.531033 -3.528907 -2.804553 -0.064081 1.009090 6.697473 4.404608 0.000000 0.000000 0.000000
